<?xml version="1.0" encoding="UTF-8"?>
<svg width="64px" height="64px" viewBox="0 0 64 64" version="1.1" xmlns="http://www.w3.org/2000/svg" xmlns:xlink="http://www.w3.org/1999/xlink">
    <!-- Generator: Sketch 62 (91390) - https://sketch.com -->
    <title>music-and-multimedia</title>
    <desc>Created with Sketch.</desc>
    <g id="Page-1" stroke="none" stroke-width="1" fill="none" fill-rule="evenodd">
        <g id="AnaSayfa" transform="translate(-328.000000, -2779.000000)" fill="#FFFFFF" fill-rule="nonzero">
            <g id="music-and-multimedia" transform="translate(328.000000, 2779.000000)">
                <path d="M32,0 C14.326888,0 0,14.326888 0,32 C0,49.673112 14.326888,64 32,64 C49.673112,64 64,49.673112 64,32 C64,14.326888 49.673112,0 32,0 Z M32,59.5862069 C16.7645586,59.5862069 4.4137931,47.2354414 4.4137931,32 C4.4137931,16.7645586 16.7645586,4.4137931 32,4.4137931 C47.2354414,4.4137931 59.5862069,16.7645586 59.5862069,32 C59.5862069,39.316317 56.6798113,46.3329766 51.506394,51.506394 C46.3329766,56.6798113 39.316317,59.5862069 32,59.5862069 Z" id="Shape"></path>
                <path d="M45.7048276,28.2813793 L27.7517241,16.8496552 C26.3916148,15.9827121 24.6669238,15.9266914 23.2534213,16.7035431 C21.8399189,17.4803949 20.9627153,18.9664 20.9655105,20.5793103 L20.9655105,43.4317241 C20.9627153,45.0446345 21.8399189,46.5306396 23.2534213,47.3074914 C24.6669238,48.0843431 26.3916148,48.0283224 27.7517241,47.1613793 L45.7048276,35.7296552 C46.9783299,34.9195396 47.7495774,33.5148533 47.7495774,32.0055172 C47.7495774,30.4961812 46.9783299,29.0914949 45.7048276,28.2813793 Z M25.3793103,43.4317241 L25.3793103,20.5793103 L43.3324138,32 L25.3793103,43.4317241 Z" id="Shape"></path>
            </g>
        </g>
    </g>
</svg>